<svg width="18" height="21" viewBox="0 0 18 21" fill="none" xmlns="http://www.w3.org/2000/svg">
<path d="M15.363 2.60149C14.1044 1.35931 12.5008 0.513379 10.7551 0.170666C9.00943 -0.172047 7.19997 0.00385319 5.55555 0.676122C3.91113 1.34839 2.50562 2.48684 1.51674 3.9475C0.527864 5.40816 3.51041e-05 7.12544 0 8.88217C0 13.6816 4.59772 17.6733 7.06819 19.818C7.41139 20.1186 7.70789 20.3732 7.94448 20.5907C8.23132 20.8538 8.6084 21 8.99998 21C9.39157 21 9.76865 20.8538 10.0555 20.5907C10.2921 20.3732 10.5886 20.1156 10.9318 19.818C13.4022 17.6733 18 13.6816 18 8.88217C18.003 7.71519 17.7716 6.5592 17.3189 5.48112C16.8663 4.40304 16.2015 3.42428 15.363 2.60149V2.60149ZM10.1073 18.891C9.75696 19.1916 9.45336 19.4582 9.20357 19.6927C9.14772 19.742 9.07542 19.7693 9.00049 19.7693C8.92556 19.7693 8.85326 19.742 8.79741 19.6927C8.54762 19.4622 8.24504 19.1996 7.89371 18.891C5.57149 16.8746 1.24894 13.1214 1.24894 8.87816C1.24894 6.84868 2.06578 4.90232 3.51976 3.46727C4.97375 2.03221 6.94577 1.226 9.00202 1.226C11.0583 1.226 13.0303 2.03221 14.4843 3.46727C15.9383 4.90232 16.7551 6.84868 16.7551 8.87816C16.752 13.1244 12.4295 16.8746 10.1073 18.891Z" fill="black"/>
</svg>
