<svg width="46" height="46" viewBox="0 0 46 46" fill="none" xmlns="http://www.w3.org/2000/svg">
<path d="M23 0C10.2985 0 0 10.1209 0 22.6034C0 35.0859 10.2985 45.2069 23 45.2069C35.7015 45.2069 46 35.0859 46 22.6034C46 10.1209 35.7015 0 23 0ZM23.3434 34.951C23 35.3558 22.5196 35.4908 22.0388 35.4908C21.4895 35.4908 21.0776 35.2885 20.6658 34.951C20.3224 34.5462 20.1165 34.0737 20.1165 33.5338C20.1165 32.9939 20.3224 32.5219 20.6658 32.1167C21.0092 31.7792 21.4895 31.5768 22.0388 31.5768C22.5881 31.5768 23 31.7792 23.3434 32.1167C23.6868 32.4541 23.8927 32.9262 23.8927 33.5338C23.8927 34.1415 23.6868 34.6135 23.3434 34.951ZM30.3465 19.0949C30.0031 19.9044 29.5912 20.512 29.0419 21.0513C28.4926 21.5912 27.8748 22.1983 27.0511 22.9406C26.2274 23.6155 25.6091 24.2227 25.1972 24.6948C24.7854 25.1673 24.3735 25.7744 24.0301 26.4489C23.8242 26.9215 23.6868 27.3935 23.6183 27.9333C23.5498 28.4059 23.1374 28.7429 22.5886 28.7429L21.627 28.7438C21.0092 28.7438 20.5283 28.204 20.5973 27.6641C20.6658 27.057 20.8032 26.4499 21.0092 25.91C21.3525 25.1004 21.7644 24.4255 22.1763 23.8856C22.6571 23.3458 23.2749 22.7387 24.0987 22.0637C25.1283 21.1192 25.8836 20.3096 26.4329 19.6347C26.9137 18.9598 27.1881 18.0153 27.1881 16.936C27.1881 15.6539 26.7762 14.7094 25.9525 14.0349C25.1288 13.36 23.9617 13.023 22.5197 13.023C21.0777 13.023 19.9106 13.4278 19.0869 14.17C18.4001 14.7099 18.2631 15.5194 18.1942 16.464C18.1942 17.0038 17.7133 17.4086 17.1645 17.4086H16.0659C15.5166 17.4086 15.0363 16.936 15.1047 16.3289C15.2422 14.4397 15.7225 12.9553 16.9586 11.8082C18.469 10.4589 20.3914 9.78391 22.8631 9.78391C25.2663 9.78391 27.1886 10.3911 28.6991 11.5381C30.1412 12.6851 30.8964 14.3046 30.8964 16.4635C30.8954 17.3408 30.6895 18.2854 30.3466 19.0949L30.3465 19.0949Z" fill="white"/>
</svg>
