<?xml version="1.0" standalone="no"?>
<!DOCTYPE svg PUBLIC "-//W3C//DTD SVG 20010904//EN"
 "http://www.w3.org/TR/2001/REC-SVG-20010904/DTD/svg10.dtd">
<svg version="1.0" xmlns="http://www.w3.org/2000/svg"
 width="700.000000pt" height="700.000000pt" viewBox="0 0 700.000000 700.000000"
 preserveAspectRatio="xMidYMid meet">
<metadata>
Created by potrace 1.14, written by Peter Selinger 2001-2017
</metadata>
<g transform="translate(0.000000,700.000000) scale(0.100000,-0.100000)"
fill="#000000" stroke="none">
<path d="M3617 4827 c0 -375 2 -685 2 -688 1 -3 22 -7 49 -8 26 0 56 -3 67 -5
11 -2 42 -7 69 -10 28 -4 82 -14 120 -22 39 -9 80 -17 91 -20 31 -6 205 -63
245 -80 68 -29 235 -113 290 -146 l54 -32 -23 39 c-22 36 -511 879 -551 950
-98 170 -403 692 -408 697 -4 4 -6 -300 -5 -675z"/>
<path d="M3245 5278 c-71 -123 -207 -358 -303 -523 -96 -165 -224 -385 -284
-490 -129 -222 -213 -366 -241 -414 l-20 -33 54 31 c263 154 576 258 834 277
44 4 84 10 89 15 11 10 15 1359 5 1359 -3 0 -64 -100 -134 -222z"/>
<path d="M3287 3894 c-1 -1 -22 -4 -47 -8 -71 -9 -112 -17 -155 -28 -22 -5
-47 -12 -55 -13 -62 -14 -225 -76 -325 -125 -525 -256 -889 -744 -990 -1325
-20 -118 -26 -389 -11 -510 29 -225 119 -505 213 -657 13 -21 23 -40 23 -43 0
-3 25 -42 56 -88 189 -274 416 -473 704 -615 203 -100 400 -157 613 -177 53
-6 67 -4 68 6 0 8 2 819 2 1802 l2 1788 -48 -2 c-26 -2 -48 -3 -50 -5z"/>
<path d="M3619 3899 c-5 -20 -2 -3584 3 -3592 9 -14 216 13 328 43 518 139
931 474 1170 950 90 178 146 370 175 590 12 92 12 359 0 430 -3 19 -7 52 -10
72 -3 21 -14 75 -26 120 -11 46 -22 92 -24 102 -10 45 -60 169 -111 275 -224
466 -636 809 -1139 951 -56 15 -127 31 -156 35 -30 4 -56 8 -60 10 -8 5 -149
18 -150 14z"/>
<path d="M5539 2090 c0 -63 -2 -131 -4 -150 -12 -120 -18 -159 -40 -265 -83
-389 -268 -729 -555 -1015 -158 -158 -323 -279 -512 -376 -43 -21 -78 -42 -78
-45 0 -3 487 -5 1083 -5 1182 1 1103 -3 1144 56 33 46 20 89 -77 255 -50 86
-102 175 -115 198 -12 23 -66 116 -119 206 -53 90 -96 165 -96 168 0 2 -15 27
-33 56 -18 29 -36 59 -40 67 -4 8 -17 31 -29 50 -12 19 -31 53 -43 75 -12 22
-117 203 -233 401 -116 199 -220 379 -231 400 l-21 39 -1 -115z"/>
<path d="M1434 2158 c-9 -18 -64 -114 -122 -213 -58 -99 -116 -200 -130 -225
-14 -25 -33 -57 -43 -72 -11 -14 -19 -28 -19 -31 0 -3 -59 -105 -131 -228 -72
-123 -143 -246 -158 -274 -16 -27 -92 -160 -170 -294 -79 -134 -151 -257 -160
-275 -10 -17 -50 -85 -88 -151 -39 -66 -75 -129 -81 -141 l-11 -20 1175 0
1174 -1 -102 54 c-300 157 -545 370 -736 640 -173 244 -306 571 -348 853 -3
25 -8 54 -11 65 -2 11 -6 92 -10 180 -3 88 -7 162 -9 163 -1 2 -10 -11 -20
-30z"/>
</g>
</svg>
