<?xml version="1.0" standalone="no"?>
<!DOCTYPE svg PUBLIC "-//W3C//DTD SVG 20010904//EN"
 "http://www.w3.org/TR/2001/REC-SVG-20010904/DTD/svg10.dtd">
<svg version="1.0" xmlns="http://www.w3.org/2000/svg"
 width="656.000000pt" height="656.000000pt" viewBox="0 0 656.000000 656.000000"
 preserveAspectRatio="xMidYMid meet">
<metadata>
Created by potrace 1.14, written by Peter Selinger 2001-2017
</metadata>
<g transform="translate(0.000000,656.000000) scale(0.100000,-0.100000)"
fill="#000000" stroke="none">
<path d="M3119 6432 c-145 -29 -251 -150 -266 -304 -3 -35 -6 -64 -7 -65 -1
-1 -152 -5 -336 -8 -745 -14 -1361 -38 -1475 -59 -99 -18 -325 -107 -325 -128
0 -4 -5 -8 -10 -8 -10 0 -60 -32 -86 -55 -67 -60 -107 -100 -141 -141 -60 -72
-113 -152 -113 -169 0 -8 -4 -15 -8 -15 -8 0 -68 -145 -78 -190 -20 -87 -33
-165 -39 -235 -3 -44 -8 -102 -10 -130 -22 -270 -27 -418 -28 -745 0 -252 6
-472 18 -635 21 -305 29 -372 55 -478 42 -170 133 -330 255 -452 89 -88 103
-99 198 -156 77 -47 213 -102 277 -113 19 -3 46 -8 60 -11 29 -6 163 -16 270
-19 111 -4 118 2 180 143 29 66 52 121 51 123 -1 2 14 36 33 75 20 40 38 84
42 98 8 33 20 22 32 -30 17 -70 72 -274 82 -300 14 -36 69 -58 108 -44 31 11
59 44 66 76 1 10 6 27 10 38 5 11 15 38 23 60 8 22 15 42 14 45 0 3 29 94 64
204 36 109 65 206 66 215 1 26 27 -42 33 -85 2 -21 21 -118 41 -214 20 -96 38
-188 41 -204 2 -15 6 -36 9 -46 3 -10 8 -31 10 -46 11 -77 25 -107 58 -128 23
-15 48 -16 354 -20 106 -1 195 -5 197 -7 3 -3 6 -83 6 -179 1 -96 6 -183 12
-193 13 -25 74 -50 101 -41 58 18 67 50 67 243 0 171 0 171 23 171 35 1 389 1
420 1 l27 -1 0 -473 c0 -355 -3 -476 -12 -485 -7 -7 -9 -12 -5 -12 4 0 -2 -24
-12 -52 -16 -46 -27 -81 -36 -123 -2 -5 -8 -28 -14 -50 -9 -33 -28 -127 -46
-220 -24 -125 -50 -378 -54 -526 l-1 -26 -145 0 -145 1 0 643 c0 701 1 692
-55 713 -36 14 -83 1 -105 -28 -19 -23 -20 -41 -20 -273 0 -144 -4 -249 -9
-249 -5 0 -11 4 -13 8 -1 5 -23 22 -48 39 -161 108 -318 155 -505 148 -55 -2
-109 -5 -120 -7 -83 -16 -102 -24 -122 -46 -47 -55 -36 -90 61 -187 36 -36 63
-65 60 -65 -3 0 1 -6 8 -13 41 -42 136 -197 201 -330 58 -119 141 -344 129
-350 -4 -2 -104 -4 -224 -5 -119 0 -225 -3 -236 -6 -11 -4 -28 -19 -38 -33
-34 -53 -10 -126 46 -140 17 -5 628 -8 1359 -7 1211 0 1331 2 1354 17 34 22
47 64 33 107 -18 55 -46 63 -223 62 -113 0 -153 3 -150 11 2 7 14 44 26 82 12
39 26 79 31 90 5 11 25 58 45 105 45 104 91 190 160 296 59 92 74 110 163 201
65 68 73 92 52 148 -17 44 -92 65 -252 70 -126 4 -247 -16 -333 -54 -25 -11
-45 -18 -45 -16 0 13 44 142 51 150 5 5 9 15 9 22 0 20 60 142 112 226 61 100
143 208 205 272 72 73 86 99 79 139 -9 45 -39 70 -101 82 -95 18 -126 21 -212
18 -134 -6 -172 -13 -293 -62 -114 -45 -173 -85 -280 -192 -69 -68 -89 -91
-135 -155 -12 -18 -14 15 -12 260 l2 279 165 2 c327 3 825 17 1054 29 91 4
115 20 135 87 7 23 18 53 24 67 6 14 11 29 11 34 1 4 5 8 10 10 10 2 11 0 52
-92 43 -95 50 -98 234 -87 242 15 448 107 624 280 120 118 228 301 261 442 2
10 9 37 14 59 15 61 22 120 36 310 10 147 15 186 21 196 3 5 0 9 -6 9 -6 0 -8
5 -5 10 9 15 18 284 18 535 0 246 -13 608 -27 753 -3 31 -8 86 -11 122 -14
180 -46 304 -111 432 -25 50 -73 128 -84 138 -3 3 -17 20 -29 39 -24 33 -74
62 -102 58 -22 -4 -55 -30 -68 -56 -19 -35 -6 -76 43 -139 86 -111 146 -259
161 -398 3 -27 8 -67 10 -89 2 -22 7 -83 10 -135 3 -52 8 -108 10 -125 2 -16
7 -111 11 -210 17 -446 2 -954 -41 -1330 -9 -79 -14 -103 -40 -178 -104 -297
-373 -510 -675 -534 -30 -2 -63 -6 -73 -8 -22 -4 -25 0 -100 165 -79 173 -85
181 -135 185 -53 4 -89 -29 -108 -100 -3 -14 -80 -226 -91 -250 -7 -18 -19
-20 -108 -22 -55 -1 -190 -5 -300 -8 -110 -3 -299 -8 -420 -10 -232 -5 -1206
-7 -1482 -3 l-162 3 -7 35 c-5 19 -9 40 -9 45 -1 6 -5 28 -10 50 -4 22 -9 47
-11 55 -1 8 -9 47 -17 85 -9 39 -18 87 -21 109 -4 21 -8 42 -11 46 -3 4 -7 23
-9 42 -3 18 -7 45 -10 58 -3 14 -8 36 -10 50 -3 14 -12 59 -21 100 -9 41 -18
91 -21 110 -29 186 -63 246 -132 235 -19 -3 -41 -10 -48 -16 -11 -9 -51 -102
-58 -134 -7 -32 -169 -521 -175 -528 -6 -6 -54 157 -67 229 -7 36 -32 90 -49
104 -28 23 -91 18 -116 -10 -11 -14 -79 -160 -149 -325 l-129 -300 -54 0
c-229 0 -406 57 -557 179 -152 122 -267 326 -294 521 -53 386 -64 1236 -22
1700 22 239 28 278 48 345 71 230 232 417 438 506 19 8 44 19 55 24 32 14 58
21 85 26 14 2 36 6 50 9 33 7 154 15 310 21 69 2 181 7 250 9 830 35 1894 38
2967 11 40 -1 75 -4 77 -7 3 -3 40 -135 82 -295 42 -159 81 -296 87 -304 22
-30 41 -40 75 -40 49 0 75 33 139 185 30 72 60 141 66 155 5 14 11 27 12 30 1
3 8 21 17 40 8 19 32 75 53 123 l38 89 91 -7 c110 -7 195 -26 278 -61 95 -40
156 -16 164 62 6 63 -51 103 -216 153 -103 31 -370 50 -415 29 -26 -12 -40
-37 -118 -218 -25 -58 -55 -127 -68 -155 l-21 -50 -19 65 c-11 36 -21 74 -24
85 -2 11 -16 63 -30 115 -14 52 -27 100 -29 105 -16 60 -40 77 -116 82 -86 5
-376 12 -724 18 -176 3 -321 7 -322 8 -1 1 -4 31 -7 65 -15 153 -133 285 -275
308 -68 11 -221 9 -283 -4z m301 -197 c40 -23 80 -93 80 -141 l0 -32 -236 1
-236 0 5 49 c8 60 35 100 87 126 58 28 248 27 300 -3z m992 -4307 c-9 -16 -24
-37 -32 -47 -16 -19 -17 -19 -91 -139 -99 -161 -215 -442 -258 -627 -9 -35
-25 -65 -57 -100 -134 -150 -278 -421 -329 -620 -10 -38 -22 -75 -27 -82 -6
-7 -31 -11 -61 -10 l-52 2 0 60 c1 130 26 345 60 515 3 14 8 41 11 60 3 19 10
49 15 67 6 17 12 44 15 60 3 15 7 36 10 45 3 9 7 25 9 36 22 117 129 345 221
473 91 126 228 259 267 259 8 0 17 4 19 10 5 15 137 58 203 64 32 4 61 8 63
11 2 2 10 1 18 -2 11 -4 11 -10 -4 -35z m-2017 -812 c138 -19 265 -81 367
-179 92 -89 88 -71 88 -370 l0 -265 -82 1 c-45 1 -82 7 -84 12 -1 6 -14 51
-30 100 -15 50 -28 95 -29 100 -4 20 -87 210 -97 223 -6 6 -7 12 -3 12 5 0 1
8 -7 18 -8 9 -27 42 -42 72 -31 59 -153 247 -167 256 -5 3 -9 11 -9 18 0 14 5
14 95 2z m2215 -5 c0 -4 -8 -16 -18 -27 -41 -44 -151 -226 -209 -344 -65 -134
-97 -215 -137 -351 l-26 -85 -203 0 c-128 1 -202 5 -202 11 1 14 24 96 34 120
5 11 15 36 22 55 45 124 171 331 258 423 49 53 126 114 176 140 54 27 155 58
213 63 31 4 59 8 60 9 6 6 32 -6 32 -14z"/>
<path d="M1185 4748 c-49 -22 -50 -24 -51 -484 -1 -402 -2 -432 -20 -462 -32
-55 -91 -60 -158 -12 -60 43 -100 43 -140 -1 -56 -63 -15 -144 103 -200 66
-32 180 -32 239 -1 79 42 142 127 157 213 11 60 8 872 -4 901 -16 43 -82 67
-126 46z"/>
<path d="M1514 4739 c-16 -10 -32 -26 -36 -36 -3 -10 -7 -192 -7 -404 -1 -366
0 -389 20 -450 34 -104 89 -171 184 -224 85 -47 150 -64 237 -60 92 3 112 8
192 45 104 48 197 156 222 256 13 51 14 815 2 838 -15 29 -48 50 -78 51 -33 1
-75 -19 -86 -42 -5 -10 -11 -196 -14 -413 l-5 -395 -26 -41 c-32 -48 -62 -69
-132 -93 -57 -19 -125 -19 -172 0 -16 7 -33 12 -37 11 -18 -4 -98 89 -108 126
-6 26 -11 178 -11 409 -1 318 -3 372 -17 396 -26 43 -84 55 -128 26z"/>
<path d="M2515 4750 c-11 -4 -29 -18 -40 -30 -19 -21 -20 -38 -22 -553 -1
-373 1 -536 9 -551 20 -37 39 -49 82 -50 46 -1 78 21 91 63 4 13 7 179 7 368
0 190 3 341 7 337 21 -24 101 -146 101 -154 0 -4 4 -10 8 -12 7 -3 271 -390
297 -436 6 -9 13 -19 16 -22 3 -3 14 -20 24 -37 11 -18 23 -33 27 -33 4 0 8
-6 8 -14 0 -8 15 -24 33 -35 59 -36 132 -10 158 58 3 8 4 184 2 391 -2 206 -4
382 -4 390 1 276 -4 303 -71 321 -47 12 -94 -9 -109 -49 -7 -17 -9 -153 -7
-380 2 -194 1 -351 -3 -350 -4 2 -88 122 -186 268 -308 459 -337 500 -358 506
-42 12 -51 12 -70 4z"/>
<path d="M3823 4734 c-45 -13 -98 -33 -120 -45 -254 -143 -374 -464 -273 -735
35 -94 81 -165 153 -235 190 -184 507 -208 702 -54 42 33 42 34 87 90 92 118
153 385 105 458 -24 38 -58 43 -240 42 -164 -1 -168 -1 -192 -25 -40 -40 -35
-122 8 -150 14 -9 55 -15 112 -16 50 -1 101 -3 114 -3 20 -1 22 -4 16 -28 -4
-16 -8 -35 -10 -44 -6 -27 -42 -94 -70 -127 -70 -83 -200 -123 -323 -98 -39 8
-121 45 -139 62 -7 7 -23 21 -36 31 -32 25 -91 110 -107 153 -18 51 -23 87
-23 155 1 83 10 121 44 185 106 199 349 273 538 163 24 -14 56 -29 70 -33 59
-16 118 49 105 116 -5 26 -17 42 -48 63 -136 93 -314 121 -473 75z"/>
<path d="M4590 4730 c-16 -15 -30 -36 -31 -47 -1 -10 -2 -249 -3 -532 l-1
-514 22 -32 c12 -18 33 -35 45 -38 13 -4 106 -6 208 -6 153 0 189 3 212 17 63
37 54 145 -15 168 -12 5 -80 8 -152 8 l-130 1 0 473 -1 472 -24 25 c-15 14
-41 26 -62 29 -31 4 -43 -1 -68 -24z"/>
<path d="M5178 4721 l-33 -29 0 -530 c0 -582 -1 -572 60 -592 21 -7 117 -10
258 -8 204 3 227 5 246 22 26 24 37 78 21 115 -20 49 -45 55 -228 55 l-167 1
0 150 0 150 113 2 c61 1 133 2 158 2 60 1 104 41 104 96 0 27 -8 44 -29 66
-32 32 -18 30 -237 31 l-111 0 1 152 1 151 174 0 173 1 30 33 c26 29 29 39 25
74 -3 22 -15 49 -27 61 -20 20 -32 21 -260 24 l-239 3 -33 -30z"/>
</g>
</svg>
